<svg id="visual" viewBox="0 0 960 540" width="960" height="540" xmlns="http://www.w3.org/2000/svg" xmlns:xlink="http://www.w3.org/1999/xlink" version="1.1"><path d="M0 114L87 114L87 233L175 233L175 228L262 228L262 98L349 98L349 152L436 152L436 104L524 104L524 217L611 217L611 195L698 195L698 185L785 185L785 114L873 114L873 98L960 98L960 158L960 0L960 0L873 0L873 0L785 0L785 0L698 0L698 0L611 0L611 0L524 0L524 0L436 0L436 0L349 0L349 0L262 0L262 0L175 0L175 0L87 0L87 0L0 0Z" fill="#b4b4b3"></path><path d="M0 260L87 260L87 341L175 341L175 303L262 303L262 174L349 174L349 266L436 266L436 212L524 212L524 271L611 271L611 298L698 298L698 282L785 282L785 249L873 249L873 222L960 222L960 222L960 156L960 96L873 96L873 112L785 112L785 183L698 183L698 193L611 193L611 215L524 215L524 102L436 102L436 150L349 150L349 96L262 96L262 226L175 226L175 231L87 231L87 112L0 112Z" fill="#8f908e"></path><path d="M0 341L87 341L87 390L175 390L175 401L262 401L262 276L349 276L349 368L436 368L436 244L524 244L524 384L611 384L611 347L698 347L698 341L785 341L785 363L873 363L873 266L960 266L960 330L960 220L960 220L873 220L873 247L785 247L785 280L698 280L698 296L611 296L611 269L524 269L524 210L436 210L436 264L349 264L349 172L262 172L262 301L175 301L175 339L87 339L87 258L0 258Z" fill="#6b6e6b"></path><path d="M0 498L87 498L87 509L175 509L175 503L262 503L262 503L349 503L349 460L436 460L436 449L524 449L524 476L611 476L611 460L698 460L698 476L785 476L785 492L873 492L873 455L960 455L960 482L960 328L960 264L873 264L873 361L785 361L785 339L698 339L698 345L611 345L611 382L524 382L524 242L436 242L436 366L349 366L349 274L262 274L262 399L175 399L175 388L87 388L87 339L0 339Z" fill="#494d4a"></path><path d="M0 541L87 541L87 541L175 541L175 541L262 541L262 541L349 541L349 541L436 541L436 541L524 541L524 541L611 541L611 541L698 541L698 541L785 541L785 541L873 541L873 541L960 541L960 541L960 480L960 453L873 453L873 490L785 490L785 474L698 474L698 458L611 458L611 474L524 474L524 447L436 447L436 458L349 458L349 501L262 501L262 501L175 501L175 507L87 507L87 496L0 496Z" fill="#292f2c"></path></svg>